<svg width="640" height="100" viewBox="0 0 640 100" fill="none" xmlns="http://www.w3.org/2000/svg">
<path d="M50.4 43.75C50.4 47.2018 47.5794 50 44.1 50C40.6206 50 37.8 47.2018 37.8 43.75C37.8 40.2982 40.6206 37.5 44.1 37.5C47.5794 37.5 50.4 40.2982 50.4 43.75Z" fill="black"/>
<path d="M81.9 50C85.3794 50 88.2 47.2018 88.2 43.75C88.2 40.2982 85.3794 37.5 81.9 37.5C78.4206 37.5 75.6 40.2982 75.6 43.75C75.6 47.2018 78.4206 50 81.9 50Z" fill="black"/>
<path d="M63 68.75C66.4794 68.75 69.3 65.9518 69.3 62.5H56.7C56.7 65.9518 59.5206 68.75 63 68.75Z" fill="black"/>
<path fill-rule="evenodd" clip-rule="evenodd" d="M63 0C84.2253 0 102.386 13.0164 109.814 31.4419C118.967 32.7477 126 40.559 126 50C126 58.767 119.935 66.1286 111.74 68.1807C106.505 86.5444 89.4866 100 69.3 100H56.7C36.5134 100 19.4946 86.5444 14.2597 68.1807C6.06505 66.1286 0 58.767 0 50C0 40.559 7.03349 32.7477 16.1857 31.4419C23.614 13.0164 41.7748 0 63 0ZM36.8252 61.0607C29.9981 58.2337 25.2 51.5477 25.2 43.75C25.2 33.3947 33.6618 25 44.1 25C51.9601 25 58.6996 29.7601 61.5492 36.5329C61.7936 37.1139 62.3655 37.5 63 37.5C63.6346 37.5 64.2064 37.1138 64.4508 36.5329C67.3004 29.76 74.0399 25 81.9 25C92.3382 25 100.8 33.3947 100.8 43.75C100.8 51.5477 96.0019 58.2337 89.1748 61.0607C88.5892 61.3032 88.2 61.8705 88.2 62.5C88.2 76.3071 76.9176 87.5 63 87.5C49.0824 87.5 37.8 76.3071 37.8 62.5C37.8 61.8705 37.4108 61.3032 36.8252 61.0607Z" fill="black"/>
<path d="M554.736 0H570.971V60.5183C570.996 62.373 571.327 63.7195 571.962 64.5579C572.622 65.3709 573.74 65.7774 575.315 65.7774C576.128 65.752 576.764 65.7012 577.221 65.625C577.678 65.5488 578.059 65.4472 578.364 65.3201L580.956 77.1341C580.117 77.3882 579.088 77.655 577.869 77.9344C576.675 78.1885 575.061 78.3537 573.029 78.4299C566.804 78.6585 562.206 77.4898 559.233 74.9238C556.261 72.3323 554.762 68.2546 554.736 62.6905V0Z" fill="black"/>
<path d="M257.29 19.5122H241.551V78.0488H257.785V44.9314C257.811 42.5432 258.344 40.4472 259.386 38.6433C260.428 36.8394 261.838 35.4294 263.616 34.4131C265.395 33.3714 267.376 32.8506 269.561 32.8506C270.679 32.8506 271.683 32.9903 272.572 33.2698C273.487 33.5239 274.325 33.8415 275.087 34.2226L279.965 20.8079C278.898 20.1474 277.691 19.6265 276.345 19.2454C274.998 18.8643 273.537 18.6738 271.962 18.6738C268.685 18.6738 265.788 19.6138 263.273 21.4939C260.758 23.3486 258.967 26.0925 257.9 29.7256H257.29V19.5122Z" fill="black"/>
<path fill-rule="evenodd" clip-rule="evenodd" d="M176 19.5122V100H192.235V68.6738H192.73C193.467 70.2998 194.534 71.9131 195.931 73.5137C197.329 75.0889 199.12 76.3974 201.305 77.439C203.515 78.4807 206.196 79.0015 209.346 79.0015C213.792 79.0015 217.806 77.8582 221.389 75.5716C224.996 73.2597 227.842 69.8679 229.925 65.3963C232.034 60.8994 233.088 55.3862 233.088 48.8567C233.088 42.1494 232.009 36.5727 229.849 32.1265C227.69 27.655 224.806 24.314 221.198 22.1037C217.59 19.8679 213.652 18.75 209.384 18.75C206.107 18.75 203.363 19.3089 201.152 20.4268C198.967 21.5193 197.189 22.8913 195.817 24.5427C194.471 26.1687 193.442 27.7693 192.73 29.3445H192.006V19.5122H176ZM193.34 57.8887C192.374 55.2973 191.892 52.2612 191.892 48.7805C191.892 45.2998 192.374 42.2764 193.34 39.7104C194.305 37.1443 195.69 35.1626 197.494 33.7652C199.323 32.3679 201.559 31.6692 204.201 31.6692C206.869 31.6692 209.117 32.3933 210.947 33.8415C212.776 35.2896 214.161 37.2967 215.101 39.8628C216.041 42.4289 216.511 45.4014 216.511 48.7805C216.511 52.185 216.028 55.1956 215.062 57.8125C214.122 60.404 212.738 62.4365 210.909 63.9101C209.079 65.3582 206.843 66.0823 204.201 66.0823C201.584 66.0823 199.361 65.3709 197.532 63.9482C195.703 62.5 194.305 60.4802 193.34 57.8887Z" fill="black"/>
<path fill-rule="evenodd" clip-rule="evenodd" d="M308.416 79.1921C302.395 79.1921 297.212 77.9726 292.867 75.5335C288.548 73.0691 285.22 69.5884 282.882 65.0915C280.545 60.5691 279.376 55.221 279.376 49.0473C279.376 43.0259 280.545 37.7414 282.882 33.1936C285.22 28.6458 288.51 25.1016 292.753 22.561C297.021 20.0203 302.026 18.75 307.768 18.75C311.63 18.75 315.225 19.3725 318.553 20.6174C321.907 21.8369 324.829 23.6789 327.318 26.1433C329.834 28.6077 331.79 31.7073 333.187 35.4421C334.585 39.1514 335.283 43.4959 335.283 48.4756V52.9344H295.421V52.9726C295.421 55.8689 295.954 58.3714 297.021 60.4802C298.114 62.5889 299.651 64.2149 301.632 65.3582C303.614 66.5015 305.964 67.0732 308.683 67.0732C310.487 67.0732 312.138 66.8191 313.637 66.311C315.136 65.8028 316.419 65.0406 317.486 64.0244C318.553 63.0081 319.366 61.7632 319.925 60.2896L334.94 61.2805C334.178 64.8882 332.616 68.0386 330.253 70.7317C327.915 73.3994 324.892 75.4827 321.183 76.9817C317.499 78.4553 313.243 79.1921 308.416 79.1921ZM297.059 37.1189C296.075 38.8533 295.534 40.7715 295.436 42.8735H320.001C320.001 40.5361 319.493 38.4654 318.477 36.6616C317.461 34.8577 316.051 33.4477 314.247 32.4314C312.468 31.3897 310.398 30.8689 308.035 30.8689C305.57 30.8689 303.385 31.4405 301.48 32.5838C299.6 33.7017 298.126 35.2134 297.059 37.1189Z" fill="black"/>
<path d="M377.358 37.1189L392.221 36.2043C391.51 30.8181 389.02 26.5625 384.752 23.4375C380.509 20.3125 374.691 18.75 367.297 18.75C362.292 18.75 357.922 19.4868 354.188 20.9604C350.478 22.4339 347.595 24.53 345.537 27.2485C343.504 29.967 342.488 33.2063 342.488 36.9665C342.488 41.3364 343.873 44.9314 346.642 47.7515C349.437 50.5716 353.692 52.5533 359.409 53.6966L369.546 55.7165C372.087 56.2246 373.967 56.9614 375.186 57.9268C376.406 58.8669 377.028 60.0737 377.053 61.5473C377.028 63.3003 376.139 64.7358 374.386 65.8537C372.658 66.9461 370.372 67.4924 367.526 67.4924C364.63 67.4924 362.254 66.8826 360.4 65.6631C358.545 64.4182 357.376 62.6143 356.893 60.2515L340.925 61.0899C341.713 66.6794 344.393 71.1001 348.967 74.3521C353.565 77.5788 359.739 79.1921 367.488 79.1921C372.569 79.1921 377.053 78.3918 380.941 76.7912C384.853 75.1651 387.927 72.904 390.163 70.0076C392.424 67.1113 393.555 63.7449 393.555 59.9085C393.555 55.691 392.158 52.2866 389.363 49.6951C386.568 47.1037 382.325 45.2236 376.634 44.0549L366.04 41.9207C363.321 41.3364 361.403 40.5615 360.285 39.596C359.167 38.6306 358.608 37.4492 358.608 36.0518C358.608 34.2988 359.472 32.9014 361.2 31.8598C362.927 30.7927 365.049 30.2591 367.564 30.2591C369.444 30.2591 371.058 30.5767 372.404 31.2119C373.776 31.8216 374.881 32.6474 375.72 33.689C376.558 34.7053 377.104 35.8486 377.358 37.1189Z" fill="black"/>
<path d="M397.034 19.5122H413.46L422.53 58.8415H423.063L432.514 19.5122H448.635L458.239 58.6128H458.734L467.652 19.5122H484.039L468.147 78.0488H450.96L440.899 41.2348H440.175L430.114 78.0488H412.964L397.034 19.5122Z" fill="black"/>
<path fill-rule="evenodd" clip-rule="evenodd" d="M498.361 75.5716C501.968 77.8582 505.995 79.0015 510.441 79.0015C513.592 79.0015 516.259 78.4807 518.444 77.439C520.655 76.3974 522.446 75.0889 523.818 73.5137C525.215 71.9131 526.295 70.2998 527.057 68.6738H527.743V78.0488H543.749V19.5122H527.553V29.3445H527.057C526.346 27.7693 525.304 26.1687 523.932 24.5427C522.586 22.8913 520.807 21.5193 518.597 20.4268C516.412 19.3089 513.681 18.75 510.403 18.75C506.109 18.75 502.159 19.8679 498.551 22.1037C494.969 24.314 492.098 27.655 489.938 32.1265C487.779 36.5727 486.699 42.1494 486.699 48.8567C486.699 55.3862 487.741 60.8994 489.824 65.3963C491.933 69.8679 494.778 73.2597 498.361 75.5716ZM522.217 63.9482C520.413 65.3709 518.203 66.0823 515.586 66.0823C512.918 66.0823 510.67 65.3582 508.841 63.9101C507.037 62.4365 505.652 60.404 504.687 57.8125C503.747 55.1956 503.277 52.185 503.277 48.7805C503.277 45.4014 503.747 42.4289 504.687 39.8628C505.627 37.2967 507.011 35.2896 508.841 33.8415C510.67 32.3933 512.918 31.6692 515.586 31.6692C518.203 31.6692 520.426 32.3679 522.255 33.7652C524.085 35.1626 525.482 37.1443 526.447 39.7104C527.413 42.2764 527.896 45.2998 527.896 48.7805C527.896 52.2612 527.4 55.2973 526.409 57.8887C525.444 60.4802 524.047 62.5 522.217 63.9482Z" fill="black"/>
<path fill-rule="evenodd" clip-rule="evenodd" d="M594.143 75.5716C597.751 77.8582 601.778 79.0015 606.224 79.0015C609.375 79.0015 612.042 78.4807 614.227 77.439C616.438 76.3974 618.229 75.0889 619.601 73.5137C620.998 71.9131 622.078 70.2998 622.84 68.6738H623.526V78.0488H639.532V0H623.336V29.3445H622.84C622.129 27.7693 621.087 26.1687 619.715 24.5427C618.369 22.8913 616.59 21.5193 614.38 20.4268C612.195 19.3089 609.464 18.75 606.186 18.75C601.892 18.75 597.942 19.8679 594.334 22.1037C590.752 24.314 587.881 27.655 585.721 32.1265C583.562 36.5727 582.482 42.1494 582.482 48.8567C582.482 55.3862 583.523 60.8994 585.607 65.3963C587.716 69.8679 590.561 73.2597 594.143 75.5716ZM618 63.9482C616.196 65.3709 613.986 66.0823 611.369 66.0823C608.701 66.0823 606.453 65.3582 604.624 63.9101C602.82 62.4365 601.435 60.404 600.47 57.8125C599.53 55.1956 599.06 52.185 599.06 48.7805C599.06 45.4014 599.53 42.4289 600.47 39.8628C601.41 37.2967 602.794 35.2896 604.624 33.8415C606.453 32.3933 608.701 31.6692 611.369 31.6692C613.986 31.6692 616.209 32.3679 618.038 33.7652C619.868 35.1626 621.265 37.1443 622.23 39.7104C623.196 42.2764 623.679 45.2998 623.679 48.7805C623.679 52.2612 623.183 55.2973 622.192 57.8887C621.227 60.4802 619.829 62.5 618 63.9482Z" fill="black"/>
</svg>
