<svg width="7680" height="1200" viewBox="0 0 640 100" fill="none" xmlns="http://www.w3.org/2000/svg">
<path fill-rule="evenodd" clip-rule="evenodd" d="M0 40V60H20V80H0V100H20V80H40V60H60V40H40V20H60V0H40V20H20V40H0ZM20 40H40V60H20V40Z" fill="black"/>
<path d="M103.381 81.4545V39.4545H111.733V44.5852H112.111C112.482 43.7633 113.019 42.928 113.722 42.0795C114.438 41.2178 115.366 40.5019 116.506 39.9318C117.659 39.3485 119.091 39.0568 120.801 39.0568C123.028 39.0568 125.083 39.6402 126.966 40.8068C128.848 41.9602 130.353 43.7036 131.48 46.0369C132.607 48.357 133.17 51.267 133.17 54.767C133.17 58.1742 132.62 61.0511 131.52 63.3977C130.433 65.7311 128.948 67.5009 127.065 68.7074C125.196 69.9006 123.101 70.4972 120.781 70.4972C119.137 70.4972 117.739 70.2254 116.585 69.6818C115.445 69.1383 114.51 68.4555 113.781 67.6335C113.052 66.7983 112.495 65.9564 112.111 65.108H111.852V81.4545H103.381ZM111.673 54.7273C111.673 56.5436 111.925 58.1278 112.429 59.4801C112.933 60.8324 113.662 61.8864 114.616 62.642C115.571 63.3845 116.731 63.7557 118.097 63.7557C119.475 63.7557 120.642 63.3778 121.597 62.6222C122.551 61.8532 123.274 60.7926 123.764 59.4403C124.268 58.0748 124.52 56.5038 124.52 54.7273C124.52 52.964 124.275 51.4129 123.784 50.0739C123.294 48.7348 122.571 47.6875 121.616 46.9318C120.662 46.1761 119.489 45.7983 118.097 45.7983C116.718 45.7983 115.551 46.1629 114.597 46.892C113.655 47.6212 112.933 48.6553 112.429 49.9943C111.925 51.3333 111.673 52.911 111.673 54.7273ZM138.818 70V39.4545H147.031V44.7841H147.349C147.906 42.8883 148.841 41.4564 150.153 40.4886C151.466 39.5076 152.977 39.017 154.688 39.017C155.112 39.017 155.569 39.0436 156.06 39.0966C156.55 39.1496 156.981 39.2225 157.352 39.3153V46.8324C156.955 46.7131 156.404 46.607 155.702 46.5142C154.999 46.4214 154.356 46.375 153.773 46.375C152.527 46.375 151.413 46.6468 150.432 47.1903C149.464 47.7206 148.695 48.4631 148.125 49.4176C147.568 50.3722 147.29 51.4725 147.29 52.7188V70H138.818ZM174.231 70.5966C171.089 70.5966 168.384 69.9602 166.117 68.6875C163.863 67.4015 162.127 65.5852 160.907 63.2386C159.687 60.8788 159.077 58.0881 159.077 54.8665C159.077 51.7244 159.687 48.9669 160.907 46.5938C162.127 44.2206 163.844 42.3712 166.058 41.0455C168.285 39.7197 170.897 39.0568 173.893 39.0568C175.908 39.0568 177.784 39.3816 179.521 40.0312C181.271 40.6676 182.795 41.6288 184.094 42.9148C185.407 44.2008 186.428 45.8182 187.157 47.767C187.886 49.7027 188.251 51.9697 188.251 54.5682V56.8949H162.458V51.6449H180.276C180.276 50.4252 180.011 49.3447 179.481 48.4034C178.951 47.4621 178.215 46.7263 177.273 46.196C176.345 45.6525 175.265 45.3807 174.032 45.3807C172.746 45.3807 171.606 45.679 170.612 46.2756C169.63 46.8589 168.862 47.6477 168.305 48.642C167.748 49.6231 167.463 50.7169 167.45 51.9233V56.9148C167.45 58.4261 167.728 59.732 168.285 60.8324C168.855 61.9328 169.657 62.7812 170.691 63.3778C171.725 63.9744 172.951 64.2727 174.37 64.2727C175.311 64.2727 176.173 64.1402 176.955 63.875C177.737 63.6098 178.407 63.2121 178.964 62.6818C179.521 62.1515 179.945 61.5019 180.237 60.733L188.072 61.25C187.674 63.1326 186.859 64.7765 185.626 66.1818C184.406 67.5739 182.828 68.661 180.893 69.4432C178.97 70.2121 176.75 70.5966 174.231 70.5966ZM219.194 48.1648L211.438 48.642C211.306 47.9792 211.021 47.3826 210.583 46.8523C210.146 46.3087 209.569 45.8778 208.853 45.5597C208.15 45.2282 207.308 45.0625 206.327 45.0625C205.015 45.0625 203.908 45.3409 203.006 45.8977C202.105 46.4413 201.654 47.1705 201.654 48.0852C201.654 48.8144 201.946 49.4309 202.529 49.9347C203.112 50.4384 204.113 50.8428 205.532 51.1477L211.06 52.2614C214.03 52.8712 216.244 53.8523 217.702 55.2045C219.161 56.5568 219.89 58.3333 219.89 60.5341C219.89 62.536 219.3 64.2926 218.12 65.804C216.953 67.3153 215.349 68.4953 213.308 69.3438C211.279 70.179 208.939 70.5966 206.288 70.5966C202.244 70.5966 199.022 69.7547 196.623 68.071C194.237 66.3741 192.838 64.0672 192.427 61.1506L200.759 60.7131C201.011 61.946 201.621 62.8873 202.589 63.5369C203.557 64.1733 204.796 64.4915 206.308 64.4915C207.792 64.4915 208.986 64.2064 209.887 63.6364C210.802 63.053 211.266 62.304 211.279 61.3892C211.266 60.6203 210.941 59.9905 210.305 59.5C209.668 58.9962 208.687 58.6117 207.362 58.3466L202.072 57.2926C199.089 56.696 196.868 55.6619 195.41 54.1903C193.965 52.7187 193.242 50.8428 193.242 48.5625C193.242 46.6004 193.772 44.91 194.833 43.4915C195.907 42.0729 197.412 40.9792 199.347 40.2102C201.296 39.4413 203.576 39.0568 206.188 39.0568C210.046 39.0568 213.082 39.8722 215.296 41.5028C217.523 43.1335 218.823 45.3542 219.194 48.1648ZM231.25 70L222.938 39.4545H231.509L236.241 59.9773H236.52L241.452 39.4545H249.864L254.875 59.858H255.134L259.787 39.4545H268.338L260.045 70H251.077L245.827 50.7898H245.449L240.199 70H231.25ZM283.347 70.4972C281.027 70.4972 278.926 69.9006 277.043 68.7074C275.174 67.5009 273.689 65.7311 272.589 63.3977C271.502 61.0511 270.958 58.1742 270.958 54.767C270.958 51.267 271.522 48.357 272.648 46.0369C273.775 43.7036 275.273 41.9602 277.143 40.8068C279.025 39.6402 281.087 39.0568 283.327 39.0568C285.038 39.0568 286.463 39.3485 287.603 39.9318C288.756 40.5019 289.684 41.2178 290.387 42.0795C291.103 42.928 291.647 43.7633 292.018 44.5852H292.276V39.4545H300.728V70H292.376V65.108H292.018C291.62 65.9564 291.057 66.7983 290.327 67.6335C289.612 68.4555 288.677 69.1383 287.523 69.6818C286.383 70.2254 284.991 70.4972 283.347 70.4972ZM286.032 63.7557C287.397 63.7557 288.551 63.3845 289.492 62.642C290.447 61.8864 291.176 60.8324 291.68 59.4801C292.197 58.1278 292.455 56.5436 292.455 54.7273C292.455 52.911 292.203 51.3333 291.7 49.9943C291.196 48.6553 290.467 47.6212 289.512 46.892C288.558 46.1629 287.397 45.7983 286.032 45.7983C284.64 45.7983 283.467 46.1761 282.512 46.9318C281.558 47.6875 280.835 48.7348 280.344 50.0739C279.854 51.4129 279.609 52.964 279.609 54.7273C279.609 56.5038 279.854 58.0748 280.344 59.4403C280.848 60.7926 281.571 61.8532 282.512 62.6222C283.467 63.3778 284.64 63.7557 286.032 63.7557ZM307.693 29.2727H316.165V60.8523C316.178 61.8201 316.35 62.5227 316.682 62.9602C317.027 63.3845 317.61 63.5966 318.432 63.5966C318.856 63.5833 319.188 63.5568 319.426 63.517C319.665 63.4773 319.864 63.4242 320.023 63.358L321.375 69.5227C320.938 69.6553 320.401 69.7945 319.764 69.9403C319.141 70.0729 318.299 70.1591 317.239 70.1989C313.991 70.3182 311.591 69.7083 310.04 68.3693C308.489 67.017 307.706 64.8892 307.693 61.9858V29.2727ZM335.793 70.4972C333.473 70.4972 331.371 69.9006 329.489 68.7074C327.619 67.5009 326.134 65.7311 325.034 63.3977C323.947 61.0511 323.403 58.1742 323.403 54.767C323.403 51.267 323.967 48.357 325.094 46.0369C326.221 43.7036 327.719 41.9602 329.588 40.8068C331.471 39.6402 333.532 39.0568 335.773 39.0568C337.483 39.0568 338.908 39.3485 340.048 39.9318C341.202 40.5019 342.13 41.2178 342.832 42.0795C343.548 42.928 344.092 43.7633 344.463 44.5852H344.722V29.2727H353.173V70H344.821V65.108H344.463C344.065 65.9564 343.502 66.7983 342.773 67.6335C342.057 68.4555 341.122 69.1383 339.969 69.6818C338.829 70.2254 337.437 70.4972 335.793 70.4972ZM338.477 63.7557C339.843 63.7557 340.996 63.3845 341.938 62.642C342.892 61.8864 343.621 60.8324 344.125 59.4801C344.642 58.1278 344.901 56.5436 344.901 54.7273C344.901 52.911 344.649 51.3333 344.145 49.9943C343.641 48.6553 342.912 47.6212 341.957 46.892C341.003 46.1629 339.843 45.7983 338.477 45.7983C337.085 45.7983 335.912 46.1761 334.957 46.9318C334.003 47.6875 333.28 48.7348 332.79 50.0739C332.299 51.4129 332.054 52.964 332.054 54.7273C332.054 56.5038 332.299 58.0748 332.79 59.4403C333.294 60.7926 334.016 61.8532 334.957 62.6222C335.912 63.3778 337.085 63.7557 338.477 63.7557Z" fill="black"/>
</svg>
